<svg width="106" height="50" viewBox="0 0 106 50" fill="none" xmlns="http://www.w3.org/2000/svg">
<rect width="106" height="50" fill="white"/>
<circle cx="23" cy="25" r="23" fill="black"/>
<path d="M67.4023 29.8359H74.5625V33H63.2891V15.9375H67.4023V29.8359ZM76.2969 33V15.9375H81.793C83.3008 15.9375 84.6562 16.2812 85.8594 16.9688C87.0625 17.6484 88 18.6133 88.6719 19.8633C89.3516 21.1055 89.6953 22.5 89.7031 24.0469V24.832C89.7031 26.3945 89.3711 27.7969 88.707 29.0391C88.0508 30.2734 87.1211 31.2422 85.918 31.9453C84.7227 32.6406 83.3867 32.9922 81.9102 33H76.2969ZM80.4102 19.1133V29.8359H81.8398C83.0195 29.8359 83.9258 29.418 84.5586 28.582C85.1914 27.7383 85.5078 26.4883 85.5078 24.832V24.0938C85.5078 22.4453 85.1914 21.2031 84.5586 20.3672C83.9258 19.5312 83.0039 19.1133 81.793 19.1133H80.4102ZM97.918 21.6094L100.707 15.9375H105.406L100.637 24.3984L105.535 33H100.789L97.918 27.2227L95.0469 33H90.3125L95.1992 24.3984L90.4414 15.9375H95.1289L97.918 21.6094Z" fill="black"/>
</svg>
